<?xml version="1.0" encoding="UTF-8"?>
<svg version="1.1" xmlns="http://www.w3.org/2000/svg" width="300" height="300">
<path d="M0 0 C99 0 198 0 300 0 C300 99 300 198 300 300 C201 300 102 300 0 300 C0 201 0 102 0 0 Z " fill="#1F772D" transform="translate(0,0)"/>
<path d="M0 0 C48.51 0 97.02 0 147 0 C147 42 147 42 137 53 C134.93553516 55.64893666 132.96434018 58.2464049 131.0625 61 C130.56580811 61.71438232 130.06911621 62.42876465 129.55737305 63.16479492 C109.48651231 92.49717398 97.25332976 125.58666333 89 160 C88.69304199 161.27230469 88.69304199 161.27230469 88.37988281 162.5703125 C84.07114632 181.03847452 82.86144721 200.18608714 81 219 C64.5 219 48 219 31 219 C31 212.52688061 31.05401084 207.39502527 32.06640625 201.203125 C32.23725739 200.14812302 32.23725739 200.14812302 32.41156006 199.07180786 C32.7846854 196.79596787 33.17185464 194.52289452 33.5625 192.25 C33.69627045 191.46232239 33.83004089 190.67464478 33.96786499 189.86309814 C42.7387848 138.49269355 60.86643679 96.09204021 88 52 C58.96 52 29.92 52 0 52 C0 34.84 0 17.68 0 0 Z " fill="#FCF9C2" transform="translate(77,43)"/>
<path d="M0 0 C99 0 198 0 300 0 C300 99 300 198 300 300 C201 300 102 300 0 300 C0 201 0 102 0 0 Z M12 11 C12 102.08 12 193.16 12 287 C12.99 287 13.98 287 15 287 C15 287.66 15 288.32 15 289 C104.43 289 193.86 289 286 289 C286 288.34 286 287.68 286 287 C286.66 287 287.32 287 288 287 C288 195.92 288 104.84 288 11 C196.92 11 105.84 11 12 11 Z " fill="#DFDCAC" transform="translate(0,0)"/>
<path d="M0 0 C98.34 0 196.68 0 298 0 C298 1.98 298 3.96 298 6 C202.96 6 107.92 6 10 6 C9.67 6.66 9.34 7.32 9 8 C8.34 8 7.68 8 7 8 C7.33 8.99 7.66 9.98 8 11 C7.34 11 6.68 11 6 11 C6 105.71 6 200.42 6 298 C4.02 298 2.04 298 0 298 C0 199.66 0 101.32 0 0 Z " fill="#FEFAC4" transform="translate(1,1)"/>
<path d="M0 0 C0.66 0 1.32 0 2 0 C4.84936654 5.91791512 3.46222345 10.74536703 2.125 16.875 C1.92519531 17.84953125 1.72539063 18.8240625 1.51953125 19.828125 C1.02668311 22.22195881 0.51986823 24.61191498 0 27 C-0.33 27 -0.66 27 -1 27 C-1.054138 24.75026553 -1.09285491 22.50015617 -1.125 20.25 C-1.14820312 18.99703125 -1.17140625 17.7440625 -1.1953125 16.453125 C-1.01537302 13.27179508 -0.68998582 11.63478104 1 9 C0.67 8.67 0.34 8.34 0 8 C-0.14115161 5.32941149 -0.04247107 2.67567762 0 0 Z " fill="#347F37" transform="translate(113,200)"/>
<path d="M0 0 C1.11665191 3.71425351 0.79401325 5.50639525 -1 9 C-1.99 9.495 -1.99 9.495 -3 10 C-3.433125 11.7015625 -3.433125 11.7015625 -3.875 13.4375 C-5 17 -5 17 -7.125 18.4375 C-7.74375 18.623125 -8.3625 18.80875 -9 19 C-7.6077541 14.37324343 -5.70479016 10.35313769 -3.375 6.125 C-2.74335938 4.97257813 -2.11171875 3.82015625 -1.4609375 2.6328125 C-0.97882813 1.76398438 -0.49671875 0.89515625 0 0 Z " fill="#E4EFB8" transform="translate(146,127)"/>
<path d="M0 0 C0.33 0.99 0.66 1.98 1 3 C1.66 3 2.32 3 3 3 C2.67 5.64 2.34 8.28 2 11 C1.34 10.67 0.68 10.34 0 10 C-0.33 10.99 -0.66 11.98 -1 13 C-1.66 13 -2.32 13 -3 13 C-2.01 8.71 -1.02 4.42 0 0 Z " fill="#348139" transform="translate(171,180)"/>
<path d="M0 0 C0.66 0.33 1.32 0.66 2 1 C2.44041451 6.28497409 2.44041451 6.28497409 2 9 C-0.5 11.5 -0.5 11.5 -3 13 C-2.68991116 11.39536551 -2.37683713 9.79130769 -2.0625 8.1875 C-1.88847656 7.29417969 -1.71445313 6.40085938 -1.53515625 5.48046875 C-1 3 -1 3 0 0 Z " fill="#E6EFB6" transform="translate(123,180)"/>
<path d="M0 0 C0.66 0 1.32 0 2 0 C3.80619523 4.46236469 4.11658501 7.31034294 3 12 C2.67 10.68 2.34 9.36 2 8 C1.34 8 0.68 8 0 8 C0 5.36 0 2.72 0 0 Z " fill="#2C7A33" transform="translate(113,200)"/>
<path d="M0 0 C1.33256282 3.64120668 0.65840377 5.66876554 -0.8125 9.1875 C-1.16957031 10.06792969 -1.52664062 10.94835937 -1.89453125 11.85546875 C-3 14 -3 14 -5 15 C-4.37321829 11.33827525 -3.35548154 8.1181005 -1.9375 4.6875 C-1.39416016 3.36298828 -1.39416016 3.36298828 -0.83984375 2.01171875 C-0.56269531 1.34785156 -0.28554687 0.68398437 0 0 Z " fill="#DEEBB3" transform="translate(133,153)"/>
<path d="M0 0 C0.33 0 0.66 0 1 0 C1.49230769 7.38461538 1.49230769 7.38461538 -1 10.5 C-1.66 10.995 -2.32 11.49 -3 12 C-4.21386936 8.35839192 -3.6674695 7.66834531 -2.0625 4.3125 C-1.49208984 3.10013672 -1.49208984 3.10013672 -0.91015625 1.86328125 C-0.60980469 1.24839844 -0.30945313 0.63351563 0 0 Z " fill="#317E36" transform="translate(187,138)"/>
<path d="M0 0 C1.15941038 3.47823115 0.70820884 5.45895578 0 9 C-0.99 9.33 -1.98 9.66 -3 10 C-4 7 -4 7 -3.22265625 5.17578125 C-2.1484375 3.45052083 -1.07421875 1.72526042 0 0 Z " fill="#317F36" transform="translate(195,123)"/>
<path d="M0 0 C0.66 0.33 1.32 0.66 2 1 C1.25 5.75 1.25 5.75 -1 8 C-1 7.34 -1 6.68 -1 6 C-1.66 5.67 -2.32 5.34 -3 5 C-2.01 3.35 -1.02 1.7 0 0 Z " fill="#2A7F32" transform="translate(203,110)"/>
<path d="M0 0 C1.98 0.99 1.98 0.99 4 2 C3.67 4.64 3.34 7.28 3 10 C0.70366176 6.55549263 0.45983515 4.06187717 0 0 Z " fill="#347E35" transform="translate(115,192)"/>
<path d="M0 0 C0.33 0.66 0.66 1.32 1 2 C1.66 2 2.32 2 3 2 C3 3.32 3 4.64 3 6 C0.03 5.505 0.03 5.505 -3 5 C-2.01 3.35 -1.02 1.7 0 0 Z " fill="#2F7D35" transform="translate(220,88)"/>
<path d="M0 0 C1 3 1 3 0.25 5.625 C-1 8 -1 8 -4 9 C-2.80100302 5.9168649 -1.52299523 2.93720508 0 0 Z " fill="#E2EDB7" transform="translate(151,118)"/>
</svg>
